Coordinates
version=1
nRows=29
nColumns=24
inDegrees=yes

Units are S.I. units (second, meters, Newtons, ...)
Angles are in degrees.

endheader
time	pelvis_tilt	pelvis_list	pelvis_rotation	pelvis_tx	pelvis_ty	pelvis_tz	hip_flexion_r	hip_adduction_r	hip_rotation_r	knee_angle_r	ankle_angle_r	subtalar_angle_r	mtp_angle_r	hip_flexion_l	hip_adduction_l	hip_rotation_l	knee_angle_l	ankle_angle_l	subtalar_angle_l	mtp_angle_l	lumbar_extension	lumbar_bending	lumbar_rotation
      5.04500000	     -2.30292316	     10.50502332	     -5.39899257	      0.39951161	      1.01095252	     -0.35239236	     11.73252893	    -14.99371640	     -4.12609795	    -66.30291178	     -6.68446606	     -3.87630045	      0.00000000	     18.37352185	     12.44393733	     -6.74906774	    -18.30113761	     10.26443508	     -7.37721571	      0.00000000	     -9.20504113	    -13.71072930	      1.66014399
      5.05000000	     -2.25000033	     10.45202493	     -5.35763914	      0.40571251	      1.01194575	     -0.35284820	     12.44080865	    -14.89378016	     -4.06785223	    -66.92551081	     -5.44372959	     -3.68866599	      0.00000000	     17.75578425	     12.52913391	     -6.47885926	    -17.98635426	     10.48672501	     -7.42600931	      0.00000000	     -9.29885859	    -13.57061849	      1.38646434
      5.05500000	     -2.18423763	     10.40589753	     -5.33656417	      0.41191118	      1.01297947	     -0.35330651	     13.13716036	    -14.80039558	     -4.01472287	    -67.47185513	     -4.21123980	     -3.50582964	      0.00000000	     17.09628572	     12.63194793	     -6.13753150	    -17.60336127	     10.59448609	     -7.63482188	      0.00000000	     -9.40010744	    -13.43842402	      1.14734328
      5.06000000	     -2.10905004	     10.34331475	     -5.29182490	      0.41808803	      1.01403832	     -0.35382065	     13.80393333	    -14.69949456	     -4.01467429	    -67.94005122	     -2.99140005	     -3.30639690	      0.00000000	     16.41365138	     12.72994001	     -5.74519417	    -17.20057853	     10.66540826	     -7.89956935	      0.00000000	     -9.51896778	    -13.27629726	      0.88970278
      5.06500000	     -2.02424121	     10.26356586	     -5.21719702	      0.42428288	      1.01512040	     -0.35437689	     14.43183972	    -14.59031628	     -4.06969402	    -68.32599077	     -1.80130923	     -3.09082486	      0.00000000	     15.70291433	     12.82089952	     -5.30123246	    -16.77547607	     10.70554007	     -8.21398871	      0.00000000	     -9.65169877	    -13.08822993	      0.61163598
      5.07000000	     -1.90352269	     10.19141702	     -5.11153670	      0.43056252	      1.01626792	     -0.35496793	     14.98769620	    -14.50915827	     -4.19848495	    -68.62483804	     -0.66916275	     -2.91475502	      0.00000000	     14.91695888	     12.93525283	     -4.75207785	    -16.29494820	     10.66344367	     -8.60128009	      0.00000000	     -9.81254915	    -12.91447867	      0.30822867
      5.07500000	     -1.82024406	     10.04914192	     -5.00249201	      0.43676906	      1.01737738	     -0.35553184	     15.56510012	    -14.33301427	     -4.32109114	    -68.84988461	      0.40046653	     -2.68815324	      0.00000000	     14.18352657	     12.95550290	     -4.28939964	    -15.85093440	     10.70244758	     -8.89499717	      0.00000000	     -9.94105626	    -12.64685115	      0.00436814
      5.08000000	     -1.71646695	      9.92038690	     -4.85950462	      0.44299669	      1.01853204	     -0.35610927	     16.09144626	    -14.18244296	     -4.49795876	    -68.99530712	      1.41556074	     -2.48370974	      0.00000000	     13.39956244	     12.99629077	     -3.70942009	    -15.36245069	     10.64449329	     -9.23611087	      0.00000000	    -10.09600107	    -12.40494472	     -0.31536870
      5.08500000	     -1.62191134	      9.76093131	     -4.71168960	      0.44920644	      1.01965658	     -0.35668056	     16.61041716	    -13.99611435	     -4.68906645	    -69.07344585	      2.36813098	     -2.26095072	      0.00000000	     12.62458107	     12.99341797	     -3.16490665	    -14.87851055	     10.61903293	     -9.55078145	      0.00000000	    -10.24061602	    -12.12168064	     -0.63776038
      5.09000000	     -1.53376357	      9.58700027	     -4.54906296	      0.45542504	      1.02075667	     -0.35727011	     17.11515862	    -13.79731645	     -4.90471137	    -69.08397826	      3.26957828	     -2.01901282	      0.00000000	     11.84697031	     12.96887570	     -2.62646713	    -14.38281846	     10.59349449	     -9.86311671	      0.00000000	    -10.37436953	    -11.81593268	     -0.97272650
      5.09500000	     -1.44353759	      9.40970886	     -4.37598474	      0.46161685	      1.02184395	     -0.35784751	     17.59903403	    -13.59209706	     -5.13727741	    -69.02466772	      4.13456451	     -1.78819750	      0.00000000	     11.05806786	     12.93122142	     -2.04994809	    -13.87364563	     10.54773032	    -10.15201086	      0.00000000	    -10.51521465	    -11.51324715	     -1.29160116
      5.10000000	     -1.35306749	      9.22165281	     -4.19752325	      0.46780816	      1.02288668	     -0.35843305	     18.06767974	    -13.37630226	     -5.38056759	    -68.90590982	      4.96931009	     -1.53068215	      0.00000000	     10.26131263	     12.87444128	     -1.47329111	    -13.35257922	     10.52201692	    -10.44446137	      0.00000000	    -10.65306981	    -11.19221983	     -1.61861797
      5.10500000	     -1.29192453	      9.01880683	     -4.00405905	      0.47397898	      1.02389036	     -0.35898054	     18.54304541	    -13.13269375	     -5.62741119	    -68.71573728	      5.81262687	     -1.22739041	      0.00000000	      9.50085301	     12.78375289	     -0.95446131	    -12.83973735	     10.47302727	    -10.68062275	      0.00000000	    -10.75802084	    -10.85771208	     -1.94752408
      5.11000000	     -1.22157217	      8.81547335	     -3.80687233	      0.48015243	      1.02484665	     -0.35954166	     18.99399519	    -12.88967713	     -5.88212447	    -68.46443256	      6.64447858	     -0.91675569	      0.00000000	      8.71803501	     12.68813184	     -0.38492107	    -12.30500749	     10.43027384	    -10.94800775	      0.00000000	    -10.86840830	    -10.52063634	     -2.27263726
      5.11500000	     -1.16793484	      8.60381181	     -3.60296709	      0.48630904	      1.02574590	     -0.36008047	     19.44519449	    -12.62813542	     -6.13049969	    -68.14922461	      7.48773156	     -0.56747437	      0.00000000	      7.95621364	     12.57073993	      0.14864747	    -11.77149282	     10.37974885	    -11.19638712	      0.00000000	    -10.95971948	    -10.17484780	     -2.60185959
      5.12000000	     -1.11463237	      8.38853636	     -3.39587659	      0.49246157	      1.02659298	     -0.36060520	     19.88035379	    -12.35632662	     -6.37605829	    -67.76945710	      8.33934454	     -0.20343639	      0.00000000	      7.18873964	     12.44114392	      0.70745357	    -11.22579105	     10.32267450	    -11.46798821	      0.00000000	    -11.04713449	     -9.82525465	     -2.92608167
      5.12500000	     -1.05707415	      8.16942131	     -3.19373859	      0.49861023	      1.02738061	     -0.36111714	     20.29789149	    -12.07412553	     -6.61231753	    -67.32789174	      9.18944286	      0.16895048	      0.00000000	      6.41008156	     12.29966264	      1.28672352	    -10.66281833	     10.26328064	    -11.77380093	      0.00000000	    -11.13287892	     -9.47096731	     -3.24134723
      5.13000000	     -1.03135900	      7.94886452	     -2.97503700	      0.50473726	      1.02809805	     -0.36159156	     20.72773692	    -11.77879364	     -6.84091294	    -66.81788367	     10.06148484	      0.58064692	      0.00000000	      5.67924025	     12.14188369	      1.80441718	    -10.11933264	     10.18148794	    -12.04041949	      0.00000000	    -11.18781214	     -9.11988996	     -3.57485500
      5.13500000	     -0.99792221	      7.72468030	     -2.76302282	      0.51086597	      1.02875670	     -0.36205097	     21.13519166	    -11.47317455	     -7.05926216	    -66.24356808	     10.92280727	      0.98082606	      0.00000000	      4.93148795	     11.97339739	      2.36096873	     -9.55573223	     10.09124587	    -12.36166130	      0.00000000	    -11.24437602	     -8.76520832	     -3.89284621
      5.14000000	     -0.96645603	      7.50231833	     -2.55494512	      0.51698550	      1.02935052	     -0.36248054	     21.53012140	    -11.16131402	     -7.26393293	    -65.60528729	     11.77634966	      1.37859462	      0.00000000	      4.18602205	     11.79673978	      2.91596390	     -8.98634270	      9.99453679	    -12.69543107	      0.00000000	    -11.29625033	     -8.41624432	     -4.20316000
      5.14500000	     -0.93632754	      7.28060711	     -2.34724674	      0.52310339	      1.02988053	     -0.36288860	     21.90950916	    -10.84470837	     -7.46022221	    -64.90286333	     12.61212416	      1.76750582	      0.00000000	      3.44121925	     11.61128524	      3.47271555	     -8.41026969	      9.88954515	    -13.04752390	      0.00000000	    -11.34303279	     -8.06970196	     -4.51227381
      5.15000000	     -0.91047378	      7.06080265	     -2.14572583	      0.52921115	      1.03034342	     -0.36326036	     22.27864862	    -10.52164474	     -7.64079599	    -64.13702037	     13.42430336	      2.13966185	      0.00000000	      2.70350390	     11.41693526	      4.01580344	     -7.83186336	      9.78023461	    -13.40328136	      0.00000000	    -11.38220944	     -7.72960598	     -4.81116286
      5.15500000	     -0.89139444	      6.84369793	     -1.94801214	      0.53530813	      1.03073629	     -0.36359633	     22.63896127	    -10.19468495	     -7.80869529	    -63.30794760	     14.20434521	      2.48810398	      0.00000000	      1.97651517	     11.21443213	      4.54012637	     -7.25338196	      9.67159955	    -13.75228361	      0.00000000	    -11.41243293	     -7.39601116	     -5.10558369
      5.16000000	     -0.87610869	      6.63092494	     -1.75580083	      0.54139141	      1.03106160	     -0.36389966	     22.98747757	     -9.86714303	     -7.96569481	    -62.41676360	     14.94562288	      2.80447066	      0.00000000	      1.25738511	     11.00617756	      5.04660644	     -6.67440256	      9.56307405	    -14.09571569	      0.00000000	    -11.43697178	     -7.07157762	     -5.38782834
      5.16500000	     -0.87058268	      6.42217289	     -1.56494582	      0.54745539	      1.03131537	     -0.36416654	     23.32966620	     -9.53933685	     -8.11263512	    -61.46461229	     15.63729412	      3.08568740	      0.00000000	      0.55558112	     10.79136442	      5.52634310	     -6.10034060	      9.46093552	    -14.41644055	      0.00000000	    -11.45180955	     -6.75555317	     -5.67030963
      5.17000000	     -0.87541740	      6.21896880	     -1.37830111	      0.55349491	      1.03149430	     -0.36439436	     23.66765506	     -9.21354718	     -8.24916663	    -60.45360156	     16.27269704	      3.32668000	      0.00000000	     -0.12662968	     10.57224246	      5.97407480	     -5.53336216	      9.37014236	    -14.70932904	      0.00000000	    -11.45652857	     -6.45128798	     -5.94579220
      5.17500000	     -0.88696383	      6.02298103	     -1.19287815	      0.55951366	      1.03159951	     -0.36459166	     23.99685993	     -8.89487773	     -8.38160710	    -59.38663840	     16.84632198	      3.52392452	      0.00000000	     -0.79402433	     10.35191846	      6.39767735	     -4.97324437	      9.28920198	    -14.98065917	      0.00000000	    -11.45506611	     -6.15764324	     -6.21784294
      5.18000000	     -0.90645602	      5.83486145	     -1.01041200	      0.56550955	      1.03163469	     -0.36475271	     24.31866632	     -8.58454384	     -8.50849799	    -58.26468262	     17.35488680	      3.68075904	      0.00000000	     -1.44233060	     10.13160643	      6.79106370	     -4.42464530	      9.21728421	    -15.22680653	      0.00000000	    -11.44770162	     -5.88017382	     -6.48430147
      5.18500000	     -0.94449089	      5.65901846	     -0.84244174	      0.57147967	      1.03155326	     -0.36488806	     24.65396675	     -8.28558891	     -8.61974410	    -57.10302011	     17.80134920	      3.79354633	      0.00000000	     -2.06059041	      9.91850483	      7.13899136	     -3.88510620	      9.19250469	    -15.43131581	      0.00000000	    -11.42209517	     -5.61193040	     -6.74782829
